@startuml

class linkLocalIpClaimerSystem_snsys_1 {
+ ip_addr_valid
+ ip_addr
..
- dfp_awready
- dfp_wready
..
+ ip_addr_valid_1
+ ip_addr_1
..
- ufp_wvalid
- ufp_wdata
- ufp_wlast
..
+ dfp_awvalid
+ dfp_awlen
+ dfp_wvalid
+ dfp_wdata
+ dfp_wlast
..
+ ufp_wready
..
- start
- CLK
- RST
}

class fifoOnBram_icmp_snsys_1 {
- rready
..
- wvalid
- wdata
- wlast
..
+ wready
..
+ rvalid
+ rdata
+ rlast
+ rlast_1
..
- CLK
- RST
}

class EtherRecvBufferSelector_snsys_1 {
- dfp_ready_ipv4
..
+ debug_valid
+ debug_data
..
+ dest_addr
+ src_addr
+ dfp_valid_ipv4
+ dfp_data_ipv4
+ dfp_last_ipv4
..
+ dfp_valid_arp
+ dfp_data_arp
+ dfp_last_arp
..
- dfp_ready_arp
..
+ ufp_ready
..
- CLK
- RST
- ufp_valid
- ufp_last
- ufp_data
}

class fifoOnBram_tcp_snsys_1 {
+ rvalid
+ rdata
+ rlast
..
- wvalid
- wdata
- wlast
..
- rready
..
+ wready
..
- CLK
- RST
}

class TcpServerSystem_snsys_1 {
+ debug_valid
+ debug_data
+ debug_valid_rcvparse
+ debug_data_rcvparse
..
+ dfp_rx_data_valid
+ dfp_rx_data
+ dfp_rx_data_strb
+ ufp_tx_data_ready
..
- ufp_valid
- ufp_data
- ufp_last
..
+ dfp_awvalid
+ dfp_awlen
+ dfp_wvalid
+ dfp_wdata
+ dfp_wlast
..
- config_valid
- config_src_addr
..
+ ufp_ready
..
- ufp_total_length_data
- ufp_src_addr
- ufp_dest_addr
- ufp_hwaddr
- ufp_hwaddr_valid
..
- dfp_rx_data_ready
- ufp_tx_data_valid
- ufp_tx_data_last
- ufp_tx_data
- ufp_tx_checksum_data_only
- ufp_tx_total_length_data_only
..
- dfp_awready
- dfp_wready
..
+ debug_valid_srv
+ debug_data_srv
..
- CLK
- RST
}

class ipv4BufferSelector_snsys_1 {
+ debug_valid
+ debug_data
..
+ total_length_data
+ source_address
+ destination_address
+ ether_src_addr_out
+ ether_dest_addr_out
..
+ ufp_ready
..
+ dfp_valid_icmp
+ dfp_data_icmp
+ dfp_last_icmp
..
- dfp_ready_icmp
..
+ dfp_valid_tcp
+ dfp_data_tcp
+ dfp_last_tcp
..
+ total_length_data_1
+ source_address_1
+ destination_address_1
+ ether_src_addr_out_1
+ dfp_valid_tcp_1
..
- dfp_ready_tcp
..
- ether_dest_addr_in
- ether_src_addr_in
- ufp_valid
- ufp_data
- ufp_last
..
- CLK
- RST
}

class TxBufferSelector3_snsys_1 {
+ ufp_awready_1
+ ufp_wready_1
..
- ufp_awvalid_3
- ufp_awlen_3
- ufp_wvalid_3
- ufp_wdata_3
- ufp_wlast_3
..
- ufp_awvalid_2
- ufp_awlen_2
- ufp_wvalid_2
- ufp_wdata_2
- ufp_wlast_2
..
+ debug_valid
+ debug_data
..
+ ufp_awready_2
+ ufp_wready_2
..
+ ufp_awready_3
+ ufp_wready_3
..
- ufp_awvalid_1
- ufp_awlen_1
- ufp_wvalid_1
- ufp_wdata_1
- ufp_wlast_1
..
+ dfp_wvalid
+ dfp_wdata
+ dfp_wlast
+ dfp_awlen
+ dfp_awvalid
..
- CLK
- RST
- dfp_wready
- dfp_awready
}

class icmpEchoSystem_snsys_1 {
- ufp_total_length_data
- ufp_src_addr
- ufp_dest_addr
- rx_src_hwaddr
- rx_dest_hwaddr
..
- ip_addr_configured
- configured_ip_addr
..
+ ufp_ready
..
+ dfp_awvalid
+ dfp_awlen
+ dfp_wvalid
+ dfp_wdata
+ dfp_wlast
..
+ debug_valid
+ debug_data
..
- ufp_valid
- ufp_data
- ufp_last
- rx_icmp_last
..
- dfp_awready
- dfp_wready
..
- CLK
- RST
}

class dummyio_snsys_1 {
- dummy1_4
- dummy72_4
- dummy1_5
- dummy72_5
..
- dummy1_2
- dummy72_2
..
- dummy1_3
- dummy72_3
..
- dummy1_6
- dummy72_6
..
- dummy1_1
- dummy72_1
..
- CLK
- RST
}

class SampleHttpResponseGenerator_snsys_1 {
- rx_valid
- rx_data
- rx_strb
- tx_ready
..
+ rx_ready
+ tx_valid
+ tx_last
+ tx_data
+ tx_checksum
+ tx_total_length
..
- CLK
- RST
}

TcpServerSystem_snsys_1::debug_valid --> dummyio_snsys_1::dummy1_4
ipv4BufferSelector_snsys_1::debug_valid --> dummyio_snsys_1::dummy1_2
ipv4BufferSelector_snsys_1::total_length_data --> icmpEchoSystem_snsys_1::ufp_total_length_data
linkLocalIpClaimerSystem_snsys_1::ip_addr_valid --> icmpEchoSystem_snsys_1::ip_addr_configured
TcpServerSystem_snsys_1::dfp_rx_data_valid --> SampleHttpResponseGenerator_snsys_1::rx_valid
TxBufferSelector3_snsys_1::ufp_awready_1 --> linkLocalIpClaimerSystem_snsys_1::dfp_awready
ipv4BufferSelector_snsys_1::ufp_ready --> EtherRecvBufferSelector_snsys_1::dfp_ready_ipv4
fifoOnBram_tcp_snsys_1::rvalid --> TcpServerSystem_snsys_1::ufp_valid
icmpEchoSystem_snsys_1::ufp_ready --> fifoOnBram_icmp_snsys_1::rready
TcpServerSystem_snsys_1::dfp_awvalid --> TxBufferSelector3_snsys_1::ufp_awvalid_3
ipv4BufferSelector_snsys_1::dfp_valid_icmp --> fifoOnBram_icmp_snsys_1::wvalid
icmpEchoSystem_snsys_1::dfp_awvalid --> TxBufferSelector3_snsys_1::ufp_awvalid_2
linkLocalIpClaimerSystem_snsys_1::ip_addr_valid_1 --> TcpServerSystem_snsys_1::config_valid
icmpEchoSystem_snsys_1::debug_valid --> dummyio_snsys_1::dummy1_3
fifoOnBram_icmp_snsys_1::wready --> ipv4BufferSelector_snsys_1::dfp_ready_icmp
ipv4BufferSelector_snsys_1::dfp_valid_tcp --> fifoOnBram_tcp_snsys_1::wvalid
TxBufferSelector3_snsys_1::debug_valid --> dummyio_snsys_1::dummy1_6
TcpServerSystem_snsys_1::ufp_ready --> fifoOnBram_tcp_snsys_1::rready
ipv4BufferSelector_snsys_1::total_length_data_1 --> TcpServerSystem_snsys_1::ufp_total_length_data
SampleHttpResponseGenerator_snsys_1::rx_ready --> TcpServerSystem_snsys_1::dfp_rx_data_ready
fifoOnBram_icmp_snsys_1::rvalid --> icmpEchoSystem_snsys_1::ufp_valid
EtherRecvBufferSelector_snsys_1::debug_valid --> dummyio_snsys_1::dummy1_1
fifoOnBram_tcp_snsys_1::wready --> ipv4BufferSelector_snsys_1::dfp_ready_tcp
EtherRecvBufferSelector_snsys_1::dest_addr --> ipv4BufferSelector_snsys_1::ether_dest_addr_in
EtherRecvBufferSelector_snsys_1::dfp_valid_arp --> linkLocalIpClaimerSystem_snsys_1::ufp_wvalid
TxBufferSelector3_snsys_1::ufp_awready_2 --> icmpEchoSystem_snsys_1::dfp_awready
TxBufferSelector3_snsys_1::ufp_awready_3 --> TcpServerSystem_snsys_1::dfp_awready
linkLocalIpClaimerSystem_snsys_1::dfp_awvalid --> TxBufferSelector3_snsys_1::ufp_awvalid_1
linkLocalIpClaimerSystem_snsys_1::ufp_wready --> EtherRecvBufferSelector_snsys_1::dfp_ready_arp
@enduml
